<svg width="153" height="192" viewBox="0 0 153 192" fill="none" xmlns="http://www.w3.org/2000/svg">
<g filter="url(#filter0_dd_1502_388)">
<path d="M43.6874 21H109.312C110.574 21 111.593 22.0198 111.594 23.2812V128.718C111.594 129.582 111.104 130.368 110.343 130.753L110.186 130.825L110.182 130.827C109.36 131.173 108.365 130.995 107.7 130.33C105.052 127.682 100.809 127.599 98.0614 130.082L97.8007 130.33C96.9653 131.165 95.644 131.218 94.7479 130.487L94.5751 130.33C91.9269 127.682 87.6842 127.599 84.9364 130.082L84.6757 130.33C83.8403 131.165 82.519 131.218 81.6229 130.487L81.4501 130.33C78.8019 127.682 74.5592 127.599 71.8114 130.082L71.5507 130.33C70.7153 131.165 69.394 131.218 68.4979 130.487L68.3251 130.33C65.6769 127.682 61.4342 127.599 58.6864 130.082L58.4257 130.33C57.5903 131.165 56.269 131.218 55.3729 130.487L55.2001 130.33C52.552 127.682 48.3092 127.599 45.5614 130.082L45.3007 130.33C44.685 130.946 43.7804 131.153 42.9764 130.886L42.8173 130.826L42.8134 130.824L42.6581 130.753C41.8966 130.369 41.4063 129.582 41.4061 128.718V23.2812C41.4061 22.0199 42.426 21 43.6874 21Z" fill="url(#paint0_linear_1502_388)" stroke="url(#paint1_linear_1502_388)" stroke-width="2"/>
<path d="M76.5002 55.303C74.6929 55.303 73.219 53.8321 73.219 52.0217C73.219 50.2114 74.6929 48.7405 76.5002 48.7405C78.3076 48.7405 79.7815 50.2114 79.7815 52.0217C79.7815 53.8354 81.2491 55.303 83.0627 55.303C84.8764 55.303 86.344 53.8354 86.344 52.0217C86.344 47.7495 83.593 44.1415 79.7815 42.7824V38.8967C79.7815 37.0831 78.3139 35.6155 76.5002 35.6155C74.6866 35.6155 73.219 37.0831 73.219 38.8967V42.7824C69.4075 44.1415 66.6565 47.7495 66.6565 52.0217C66.6565 57.4498 71.0722 61.8655 76.5002 61.8655C78.3076 61.8655 79.7815 63.3364 79.7815 65.1467C79.7815 66.9571 78.3076 68.428 76.5002 68.428C74.6929 68.428 73.219 66.9571 73.219 65.1467C73.219 63.3331 71.7514 61.8655 69.9377 61.8655C68.1241 61.8655 66.6565 63.3331 66.6565 65.1467C66.6565 69.4189 69.4075 73.027 73.219 74.3861V78.2717C73.219 80.0854 74.6866 81.553 76.5002 81.553C78.3139 81.553 79.7815 80.0854 79.7815 78.2717V74.3861C83.593 73.0272 86.344 69.4189 86.344 65.1467C86.344 59.7187 81.9285 55.303 76.5002 55.303ZM76.5002 88.1155H56.8127C54.9991 88.1155 53.5315 89.5831 53.5315 91.3967C53.5315 93.2104 54.9991 94.678 56.8127 94.678H76.5002C78.3139 94.678 79.7815 93.2104 79.7815 91.3967C79.7815 89.5831 78.3139 88.1155 76.5002 88.1155ZM76.5002 101.24H56.8127C54.9991 101.24 53.5315 102.708 53.5315 104.522C53.5315 106.335 54.9991 107.803 56.8127 107.803H76.5002C78.3139 107.803 79.7815 106.335 79.7815 104.522C79.7815 102.708 78.3139 101.24 76.5002 101.24ZM89.6252 94.678H96.1877C98.0014 94.678 99.469 93.2104 99.469 91.3967C99.469 89.5831 98.0014 88.1155 96.1877 88.1155H89.6252C87.8116 88.1155 86.344 89.5831 86.344 91.3967C86.344 93.2104 87.8116 94.678 89.6252 94.678ZM96.1877 101.24H89.6252C87.8116 101.24 86.344 102.708 86.344 104.522C86.344 106.335 87.8116 107.803 89.6252 107.803H96.1877C98.0014 107.803 99.469 106.335 99.469 104.522C99.469 102.708 98.0014 101.24 96.1877 101.24Z" fill="white"/>
</g>
<defs>
<filter id="filter0_dd_1502_388" x="0.406128" y="0" width="152.188" height="192" filterUnits="userSpaceOnUse" color-interpolation-filters="sRGB">
<feFlood flood-opacity="0" result="BackgroundImageFix"/>
<feColorMatrix in="SourceAlpha" type="matrix" values="0 0 0 0 0 0 0 0 0 0 0 0 0 0 0 0 0 0 127 0" result="hardAlpha"/>
<feOffset dy="20"/>
<feGaussianBlur stdDeviation="20"/>
<feColorMatrix type="matrix" values="0 0 0 0 1 0 0 0 0 0.680498 0 0 0 0 0 0 0 0 0.29 0"/>
<feBlend mode="normal" in2="BackgroundImageFix" result="effect1_dropShadow_1502_388"/>
<feColorMatrix in="SourceAlpha" type="matrix" values="0 0 0 0 0 0 0 0 0 0 0 0 0 0 0 0 0 0 127 0" result="hardAlpha"/>
<feOffset dy="5"/>
<feGaussianBlur stdDeviation="5"/>
<feColorMatrix type="matrix" values="0 0 0 0 1 0 0 0 0 0.680498 0 0 0 0 0 0 0 0 0.26 0"/>
<feBlend mode="normal" in2="effect1_dropShadow_1502_388" result="effect2_dropShadow_1502_388"/>
<feBlend mode="normal" in="SourceGraphic" in2="effect2_dropShadow_1502_388" result="shape"/>
</filter>
<linearGradient id="paint0_linear_1502_388" x1="76.5" y1="-22.8026" x2="76.5" y2="169.452" gradientUnits="userSpaceOnUse">
<stop offset="0.630208" stop-color="#FFAE00"/>
<stop offset="1" stop-color="#FFCD1E"/>
</linearGradient>
<linearGradient id="paint1_linear_1502_388" x1="76.5" y1="20" x2="76.5" y2="132" gradientUnits="userSpaceOnUse">
<stop stop-color="#FF9F00"/>
<stop offset="1" stop-color="#FFB800"/>
</linearGradient>
</defs>
</svg>
