<svg width="27" height="0" viewBox="0 0 27 20" fill="none" xmlns="http://www.w3.org/2000/svg">
  <path d="M21.7539 15.8242C22.0703 16.1758 22.0703 16.7031 21.7188 17.0195L20.7344 18.0039C20.418 18.3555 19.8906 18.3555 19.5391 18.0039L16.0586 14.5234C15.8828 14.3477 15.8125 14.1367 15.8125 13.9258V13.3281C14.5469 14.3125 13 14.875 11.3125 14.875C7.26953 14.875 4 11.6055 4 7.5625C4 3.55469 7.26953 0.25 11.3125 0.25C15.3203 0.25 18.625 3.55469 18.625 7.5625C18.625 9.28516 18.0273 10.832 17.0781 12.0625H17.6406C17.8516 12.0625 18.0625 12.168 18.2383 12.3086L21.7539 15.8242ZM11.3125 12.0625C13.7734 12.0625 15.8125 10.0586 15.8125 7.5625C15.8125 5.10156 13.7734 3.0625 11.3125 3.0625C8.81641 3.0625 6.8125 5.10156 6.8125 7.5625C6.8125 10.0586 8.81641 12.0625 11.3125 12.0625Z" fill="#FFB30E"/>
</svg>